<?xml version="1.0" encoding="UTF-8"?>
<svg id="Layer_1" xmlns="http://www.w3.org/2000/svg" version="1.1" viewBox="0 0 1120 600">
  <!-- Generator: Adobe Illustrator 29.5.1, SVG Export Plug-In . SVG Version: 2.1.0 Build 141)  -->
  <defs>
    <style>
      .st0 {
        fill: none;
      }

      .st1 {
        stroke: #cbd5e1;
      }

      .st1, .st2 {
        fill: #f8fafc;
      }

      .st1, .st3 {
        stroke-width: 2px;
      }

      .st4 {
        stroke: #000;
      }

      .st4, .st5, .st6, .st7, .st8 {
        stroke-width: 3px;
      }

      .st9 {
        fill: #dc2626;
      }

      .st10 {
        font-size: 16.8px;
      }

      .st10, .st11, .st12, .st13, .st14, .st15, .st16, .st17, .st18 {
        isolation: isolate;
      }

      .st10, .st11, .st19, .st13, .st20, .st14, .st15, .st16, .st17, .st18 {
        font-family: ArialMT, Arial;
      }

      .st10, .st11, .st19, .st20, .st14, .st15, .st16, .st17 {
        fill: #111827;
      }

      .st5 {
        fill: #dcfce7;
        stroke: #16a34a;
      }

      .st21 {
        fill: blue;
      }

      .st21, .st2 {
        stroke: blue;
      }

      .st11, .st20 {
        font-size: 20px;
      }

      .st6 {
        fill: #fee2e2;
        stroke: #dc2626;
      }

      .st22 {
        fill: #2563eb;
      }

      .st19, .st15 {
        font-size: 20.96px;
      }

      .st13 {
        font-size: 18px;
      }

      .st13, .st18 {
        fill: #374151;
      }

      .st14 {
        font-size: 24px;
      }

      .st2 {
        stroke-width: 5px;
      }

      .st16 {
        font-size: 14.67px;
      }

      .st17 {
        font-size: 14px;
      }

      .st7 {
        stroke: red;
      }

      .st23 {
        fill: #4b5563;
      }

      .st18 {
        font-size: 12.6px;
      }

      .st8 {
        fill: #dbeafe;
        stroke: #1d4ed8;
      }

      .st3 {
        fill: #f1f5f9;
        stroke: #64748b;
      }
    </style>
  </defs>
  <rect class="st1" x="20" y="20" width="520" height="560" rx="12" ry="12"/>
  <rect class="st1" x="577.24" y="20" width="520" height="560" rx="12" ry="12"/>
  <text class="st14" transform="translate(55 70)"><tspan x="0" y="0">One-lump model</tspan></text>
  <text class="st14" transform="translate(604.41 95.1)"><tspan x="0" y="0">Two-lump model</tspan></text>
  <rect class="st8" x="190" y="180" width="180" height="140" rx="16" ry="16"/>
  <text class="st14" transform="translate(235 235)"><tspan x="0" y="0">T</tspan></text>
  <text class="st13" transform="translate(220 270)"><tspan x="0" y="0">TEC/block</tspan></text>
  <text class="st13" transform="translate(205 295)"><tspan x="0" y="0">heat capacity C</tspan></text>
  <path class="st3" d="M414,205h61.78c7.85,0,14.22,6.37,14.22,14.22v61.78c0,7.73-6.27,14-14,14h-62c-7.73,0-14-6.27-14-14v-62c0-7.73,6.27-14,14-14Z"/>
  <text class="st13" transform="translate(417 244)"><tspan x="0" y="0">room</tspan></text>
  <g class="st12">
    <text class="st13" transform="translate(408 268)"><tspan x="0" y="0">T</tspan></text>
    <text class="st18" transform="translate(419 271.6)"><tspan x="0" y="0">room</tspan></text>
  </g>
  <path class="st0" d=""/>
  <path class="st9" d="M152,233.33l33.33,16.67-33.33,16.67v-33.33Z"/>
  <path class="st9" d="M182,250"/>
  <g class="st12">
    <text class="st11" transform="translate(76.72 226)"><tspan x="0" y="0">Q</tspan></text>
    <text class="st17" transform="translate(92.28 230)"><tspan x="0" y="0">TEC</tspan></text>
  </g>
  <text class="st13" transform="translate(70.44 288)"><tspan x="0" y="0">signed PWM</tspan></text>
  <path class="st0" d=""/>
  <path class="st23" d="M392,250"/>
  <g>
    <text class="st15" transform="translate(395.15 188.67) scale(.95 1)"><tspan x="0" y="0">G(T - T</tspan></text>
    <text class="st16" transform="translate(457.11 192.21) scale(.95 1)"><tspan x="0" y="0">room</tspan></text>
    <text class="st19" transform="translate(490.03 188.67) scale(.95 1)"><tspan x="0" y="0">)</tspan></text>
  </g>
  <g>
    <text class="st11" transform="translate(60 405)"><tspan x="0" y="0">C dT/dt = Q</tspan></text>
    <text class="st17" transform="translate(163.93 409)"><tspan x="0" y="0">TEC</tspan></text>
    <text class="st20" transform="translate(191.93 405)"><tspan x="0" y="0" xml:space="preserve"> - G(T - T</tspan></text>
    <text class="st17" transform="translate(273.4 409)"><tspan x="0" y="0">room</tspan></text>
    <text class="st20" transform="translate(305.3 405)"><tspan x="0" y="0">)</tspan></text>
  </g>
  <text class="st13" transform="translate(60 445)"><tspan x="0" y="0">Assumption: one object, one temperature.</tspan></text>
  <text class="st13" transform="translate(60 475)"><tspan x="0" y="0">Useful for droop and first time-constant intuition.</tspan></text>
  <rect class="st6" x="674.41" y="200.1" width="160" height="135" rx="16" ry="16"/>
  <text class="st14" transform="translate(744.41 253.1)"><tspan x="0" y="0">T</tspan></text>
  <text class="st13" transform="translate(694.41 288.1)"><tspan x="0" y="0">TEC side</tspan></text>
  <g class="st12">
    <text class="st13" transform="translate(689.41 313.1)"><tspan x="0" y="0">heat capacity C</tspan></text>
    <text class="st18" transform="translate(813.48 316.7)"><tspan x="0" y="0">1</tspan></text>
  </g>
  <rect class="st5" x="879.41" y="200.1" width="160" height="135" rx="16" ry="16"/>
  <g class="st12">
    <text class="st14" transform="translate(947.41 253.1)"><tspan x="0" y="0">T</tspan></text>
    <text class="st10" transform="translate(962.07 257.9)"><tspan x="0" y="0">m</tspan></text>
  </g>
  <text class="st13" transform="translate(899.41 288.1)"><tspan x="0" y="0">thermistor side</tspan></text>
  <g class="st12">
    <text class="st13" transform="translate(894.41 313.1)"><tspan x="0" y="0">heat capacity C</tspan></text>
    <text class="st18" transform="translate(1018.48 316.7)"><tspan x="0" y="0">2</tspan></text>
  </g>
  <rect class="st3" x="952.11" y="399.19" width="105" height="90" rx="14" ry="14"/>
  <text class="st13" transform="translate(970.05 433.28)"><tspan x="0" y="0">room</tspan></text>
  <g class="st12">
    <text class="st13" transform="translate(978.57 466.64)"><tspan x="0" y="0">T</tspan></text>
    <text class="st18" transform="translate(989.56 470.24)"><tspan x="0" y="0">room</tspan></text>
  </g>
  <path class="st0" d=""/>
  <path class="st9" d="M637.41,250.44l33.33,16.67-33.33,16.67v-33.33Z"/>
  <path class="st9" d="M667.41,267.1"/>
  <g class="st12">
    <text class="st11" transform="translate(599.41 240.1)"><tspan x="0" y="0">Q</tspan></text>
    <text class="st17" transform="translate(614.97 244.1)"><tspan x="0" y="0">TEC</tspan></text>
  </g>
  <path class="st0" d=""/>
  <path class="st23" d="M871.41,267.1"/>
  <g>
    <text class="st11" transform="translate(913.94 223.54)"><tspan x="0" y="0">G</tspan></text>
    <text class="st17" transform="translate(929.5 227.54)"><tspan x="0" y="0">12</tspan></text>
    <text class="st20" transform="translate(945.07 223.54)"><tspan x="0" y="0">(T - T</tspan></text>
    <text class="st17" transform="translate(993.21 227.54)"><tspan x="0" y="0">m</tspan></text>
    <text class="st20" transform="translate(1004.88 223.54)"><tspan x="0" y="0">)</tspan></text>
  </g>
  <path class="st0" d=""/>
  <path class="st23" d="M964.41,402.1"/>
  <g>
    <text class="st11" transform="translate(794.41 385.1)"><tspan x="0" y="0">G</tspan></text>
    <text class="st17" transform="translate(809.97 389.1)"><tspan x="0" y="0">m</tspan></text>
    <text class="st20" transform="translate(821.63 385.1)"><tspan x="0" y="0">(T</tspan></text>
    <text class="st17" transform="translate(840.5 389.1)"><tspan x="0" y="0">m</tspan></text>
    <text class="st20" transform="translate(852.17 385.1)"><tspan x="0" y="0" xml:space="preserve"> - T</tspan></text>
    <text class="st17" transform="translate(881.8 389.1)"><tspan x="0" y="0">room</tspan></text>
    <text class="st20" transform="translate(913.69 385.1)"><tspan x="0" y="0">)</tspan></text>
  </g>
  <path class="st0" d=""/>
  <path class="st21" d="M768.68,208.93l-36.76,6.13,17.16-33.08,19.61,26.96Z"/>
  <path class="st22" d="M754.41,140.1"/>
  <g class="st12">
    <text class="st13" transform="translate(730.29 138.3)"><tspan x="0" y="0">feedback uses measured T</tspan></text>
    <text class="st18" transform="translate(947.08 141.9)"><tspan x="0" y="0">m</tspan></text>
  </g>
  <text class="st13" transform="translate(750.3 166.02)"><tspan x="0" y="0">so the controller reacts after thermal lag</tspan></text>
  <g>
    <text class="st11" transform="translate(604.41 430.1)"><tspan x="0" y="0">C</tspan></text>
    <text class="st17" transform="translate(618.85 434.1)"><tspan x="0" y="0">1</tspan></text>
    <text class="st20" transform="translate(626.64 430.1)"><tspan x="0" y="0" xml:space="preserve"> dT/dt = Q</tspan></text>
    <text class="st17" transform="translate(716.12 434.1)"><tspan x="0" y="0">TEC</tspan></text>
    <text class="st20" transform="translate(744.12 430.1)"><tspan x="0" y="0" xml:space="preserve"> - G</tspan></text>
    <text class="st17" transform="translate(777.45 434.1)"><tspan x="0" y="0">12</tspan></text>
    <text class="st20" transform="translate(793.02 430.1)"><tspan x="0" y="0">(T - T</tspan></text>
    <text class="st17" transform="translate(841.17 434.1)"><tspan x="0" y="0">m</tspan></text>
    <text class="st20" transform="translate(852.83 430.1)"><tspan x="0" y="0">)</tspan></text>
  </g>
  <g>
    <text class="st11" transform="translate(589.16 467.66)"><tspan x="0" y="0">C</tspan></text>
    <text class="st17" transform="translate(603.61 471.66)"><tspan x="0" y="0">2</tspan></text>
    <text class="st20" transform="translate(611.39 467.66)"><tspan x="0" y="0" xml:space="preserve"> dT</tspan></text>
    <text class="st17" transform="translate(640.29 471.66)"><tspan x="0" y="0">m</tspan></text>
    <text class="st20" transform="translate(651.95 467.66)"><tspan x="0" y="0">/dt = G</tspan></text>
    <text class="st17" transform="translate(712.54 471.66)"><tspan x="0" y="0">12</tspan></text>
    <text class="st20" transform="translate(728.11 467.66)"><tspan x="0" y="0">(T - T</tspan></text>
    <text class="st17" transform="translate(776.26 471.66)"><tspan x="0" y="0">m</tspan></text>
    <text class="st20" transform="translate(787.92 467.66)"><tspan x="0" y="0">) - G</tspan></text>
    <text class="st17" transform="translate(827.91 471.66)"><tspan x="0" y="0">m</tspan></text>
    <text class="st20" transform="translate(839.57 467.66)"><tspan x="0" y="0">(T</tspan></text>
    <text class="st17" transform="translate(858.45 471.66)"><tspan x="0" y="0">m</tspan></text>
    <text class="st20" transform="translate(870.11 467.66)"><tspan x="0" y="0" xml:space="preserve"> - T</tspan></text>
    <text class="st17" transform="translate(899.74 471.66)"><tspan x="0" y="0">room</tspan></text>
    <text class="st20" transform="translate(931.63 467.66)"><tspan x="0" y="0">)</tspan></text>
  </g>
  <text class="st13" transform="translate(604.41 515.1)"><tspan x="0" y="0">Assumption: two objects, two temperatures.</tspan></text>
  <text class="st13" transform="translate(604.41 545.1)"><tspan x="0" y="0">Useful for overshoot, lag, and high-gain oscillation.</tspan></text>
  <line class="st7" x1="152" y1="250.11" x2="84.5" y2="250.11"/>
  <path class="st7" d="M396.21,351"/>
  <g>
    <path class="st23" d="M382.57,233.33l24.76,16.67-24.76,16.67v-33.33Z"/>
    <line class="st4" x1="382.64" y1="249.9" x2="332.5" y2="249.9"/>
  </g>
  <line class="st7" x1="651.8" y1="267.1" x2="584.3" y2="267.1"/>
  <g>
    <path class="st23" d="M871.43,250.44l24.76,16.67-24.76,16.67v-33.33Z"/>
    <line class="st4" x1="871.49" y1="267" x2="821.35" y2="267"/>
  </g>
  <g>
    <path class="st23" d="M1017.49,381.26l-16.67,24.76-16.67-24.76h33.33Z"/>
    <line class="st4" x1="1000.93" y1="381.33" x2="1000.93" y2="331.19"/>
  </g>
  <path class="st5" d="M858.77,181.97"/>
  <path class="st2" d="M755.09,197.26c15.48-8.08,30.89-11.47,39.87-12.98,24.72-4.16,46.1-1.75,61.6,0,15.14,1.71,26.22,4.21,44.78,8.41,15.27,3.45,27.65,6.8,36.42,9.32"/>
</svg>