<?xml version="1.0" encoding="UTF-8"?>
<svg id="Layer_1" xmlns="http://www.w3.org/2000/svg" version="1.1" viewBox="0 0 1050 536.21">
  <!-- Generator: Adobe Illustrator 29.5.1, SVG Export Plug-In . SVG Version: 2.1.0 Build 141)  -->
  <defs>
    <style>
      .st0 {
        stroke: #bd4639;
      }

      .st0, .st1, .st2, .st3, .st4, .st5 {
        fill: none;
      }

      .st0, .st2, .st3, .st4 {
        stroke-width: 5px;
      }

      .st0, .st2, .st3, .st4, .st5 {
        stroke-linecap: round;
      }

      .st1 {
        stroke: #1f2f3a;
        stroke-linejoin: round;
      }

      .st1, .st5 {
        stroke-width: 4px;
      }

      .st6 {
        fill: #1f7895;
        stroke: #15566c;
      }

      .st6, .st7, .st8, .st9, .st10, .st11 {
        stroke-width: 3px;
      }

      .st12 {
        font-size: 16px;
      }

      .st12, .st13, .st14, .st15, .st16, .st17, .st18, .st19, .st20, .st21, .st22, .st23, .st24, .st25, .st26, .st27, .st28 {
        isolation: isolate;
      }

      .st12, .st13, .st16, .st21 {
        fill: #52616b;
      }

      .st12, .st16, .st18 {
        font-family: ArialMT, Arial;
      }

      .st29, .st14, .st11 {
        fill: #bd4639;
      }

      .st13, .st14, .st15, .st17, .st19, .st20, .st21, .st22, .st23, .st24, .st25, .st26, .st27, .st28 {
        font-family: Arial-BoldMT, Arial;
        font-weight: 700;
      }

      .st13, .st23, .st25 {
        font-size: 12px;
      }

      .st14, .st19, .st24, .st26 {
        font-size: 15px;
      }

      .st15 {
        font-size: 10px;
      }

      .st15, .st20, .st25 {
        fill: #f7fbfc;
      }

      .st16 {
        font-size: 17px;
      }

      .st7 {
        fill: #cfd9df;
      }

      .st7, .st30 {
        stroke: #8998a0;
      }

      .st31, .st8, .st26 {
        fill: #4d5961;
      }

      .st17 {
        fill: #a33c30;
        font-size: 19px;
      }

      .st18 {
        font-size: 18px;
      }

      .st18, .st22, .st28 {
        fill: #1f2f3a;
      }

      .st2 {
        stroke: #276f93;
      }

      .st30 {
        fill: #eef3f5;
      }

      .st30, .st32 {
        stroke-width: 2px;
      }

      .st33 {
        font-family: MyriadPro-Regular, 'Myriad Pro';
      }

      .st33, .st28 {
        font-size: 21px;
      }

      .st19, .st32, .st23 {
        fill: #fff;
      }

      .st32 {
        stroke: #d3ddd6;
      }

      .st8, .st10, .st11 {
        stroke: #fff;
      }

      .st34, .st10, .st24 {
        fill: #276f93;
      }

      .st9 {
        fill: #202a31;
        stroke: #101519;
      }

      .st20, .st21 {
        font-size: 13px;
      }

      .st35 {
        fill: #22313a;
      }

      .st3 {
        stroke: #4d5961;
      }

      .st22 {
        font-size: 30px;
      }

      .st36 {
        fill: #d9b24c;
      }

      .st37 {
        fill: #2e9f80;
      }

      .st27 {
        fill: #eef8fb;
        font-size: 27px;
      }

      .st38 {
        fill: #5b656b;
      }

      .st4 {
        stroke: #b7cca3;
      }

      .st39 {
        fill: #eef6ee;
        stroke: #c9d9ca;
      }

      .st5 {
        stroke: #d57b2a;
      }

      .st40 {
        fill: #17242b;
      }
    </style>
  </defs>
  <rect class="st32" x="1" y="1" width="1048" height="534.21" rx="18" ry="18"/>
  <text class="st22" transform="translate(291.06 54.5)"><tspan x="0" y="0">Lab 2 Thermistor Voltage Divider</tspan></text>
  <text class="st12" transform="translate(337.76 84.5)"><tspan x="0" y="0">The divider midpoint goes to Arduino analog input A0</tspan></text>
  <rect class="st6" x="43" y="121.5" width="520" height="345" rx="24" ry="24"/>
  <rect class="st7" x="7" y="196.5" width="54" height="72" rx="8" ry="8"/>
  <rect class="st30" x="19" y="214.5" width="32" height="36" rx="4" ry="4"/>
  <text class="st13" transform="translate(10.33 285.5)"><tspan x="0" y="0">USB</tspan></text>
  <circle class="st9" cx="69" cy="358.5" r="28"/>
  <circle class="st38" cx="69" cy="358.5" r="13"/>
  <text class="st23" transform="translate(46.33 401.5)"><tspan x="0" y="0">POWER JACK</tspan></text>
  <text class="st27" transform="translate(221.27 200.14)"><tspan x="0" y="0">Arduino Uno</tspan></text>
  <rect class="st35" x="239" y="220.5" width="146" height="62" rx="7" ry="7"/>
  <text class="st20" transform="translate(271.66 256.5)"><tspan x="0" y="0">ATmega328P</tspan></text>
  <rect class="st37" x="121" y="221.5" width="78" height="43" rx="6" ry="6"/>
  <text class="st25" transform="translate(140 247.5)"><tspan x="0" y="0">RESET</tspan></text>
  <circle class="st36" cx="501" cy="164.5" r="11"/>
  <circle class="st36" cx="501" cy="423.5" r="11"/>
  <circle class="st36" cx="79" cy="164.5" r="11"/>
  <circle class="st36" cx="79" cy="423.5" r="11"/>
  <text class="st21" transform="translate(293.99 113.31)"><tspan x="0" y="0">DIGITAL PINS</tspan></text>
  <rect class="st40" x="172.34" y="132.3" width="344" height="42" rx="7" ry="7"/>
  <text class="st15" transform="translate(178.22 160.5)"><tspan x="0" y="0">0</tspan></text>
  <text class="st15" transform="translate(201.22 160.5)"><tspan x="0" y="0">1</tspan></text>
  <text class="st15" transform="translate(224.22 160.5)"><tspan x="0" y="0">2</tspan></text>
  <text class="st15" transform="translate(247.22 160.5)"><tspan x="0" y="0">3</tspan></text>
  <text class="st15" transform="translate(270.22 160.5)"><tspan x="0" y="0">4</tspan></text>
  <text class="st15" transform="translate(293.22 160.5)"><tspan x="0" y="0">5</tspan></text>
  <text class="st15" transform="translate(316.22 160.5)"><tspan x="0" y="0">6</tspan></text>
  <text class="st15" transform="translate(339.22 160.5)"><tspan x="0" y="0">7</tspan></text>
  <text class="st15" transform="translate(372.22 160.5)"><tspan x="0" y="0">8</tspan></text>
  <text class="st15" transform="translate(395.22 160.5)"><tspan x="0" y="0">9</tspan></text>
  <text class="st15" transform="translate(415.44 160.5)"><tspan x="0" y="0">10</tspan></text>
  <text class="st15" transform="translate(442.71 160.5)"><tspan x="0" y="0">11</tspan></text>
  <text class="st15" transform="translate(469.44 160.5)"><tspan x="0" y="0">12</tspan></text>
  <text class="st15" transform="translate(492.44 160.5)"><tspan x="0" y="0">13</tspan></text>
  <text class="st21" transform="translate(166.19 397.5)"><tspan x="0" y="0">POWER HEADER</tspan></text>
  <rect class="st40" x="119" y="408.5" width="202" height="42" rx="7" ry="7"/>
  <text class="st15" transform="translate(133.72 434.5)"><tspan x="0" y="0">IO</tspan></text>
  <text class="st15" transform="translate(153 434.5)"><tspan x="0" y="0">RST</tspan></text>
  <text class="st15" transform="translate(182.1 434.5)"><tspan x="0" y="0">3V3</tspan></text>
  <text class="st15" transform="translate(214.88 434.5)"><tspan x="0" y="0">5V</tspan></text>
  <text class="st15" transform="translate(239.89 434.5)"><tspan x="0" y="0">GND</tspan></text>
  <text class="st15" transform="translate(271.89 434.5)"><tspan x="0" y="0">GND</tspan></text>
  <text class="st15" transform="translate(298.67 434.5)"><tspan x="0" y="0">VIN</tspan></text>
  <text class="st21" transform="translate(397.53 397.5)"><tspan x="0" y="0">ANALOG IN</tspan></text>
  <rect class="st40" x="353" y="408.5" width="162" height="42" rx="7" ry="7"/>
  <text class="st15" transform="translate(364.61 434.5)"><tspan x="0" y="0">A0</tspan></text>
  <text class="st15" transform="translate(391.61 434.5)"><tspan x="0" y="0">A1</tspan></text>
  <text class="st15" transform="translate(418.61 434.5)"><tspan x="0" y="0">A2</tspan></text>
  <text class="st15" transform="translate(445.61 434.5)"><tspan x="0" y="0">A3</tspan></text>
  <text class="st15" transform="translate(472.61 434.5)"><tspan x="0" y="0">A4</tspan></text>
  <text class="st15" transform="translate(499.61 434.5)"><tspan x="0" y="0">A5</tspan></text>
  <circle class="st10" cx="221" cy="408.5" r="9"/>
  <circle class="st8" cx="251" cy="408.5" r="9"/>
  <circle class="st11" cx="371" cy="408.5" r="10"/>
  <text class="st24" transform="translate(184.5 496.5)"><tspan x="0" y="0">5V pin</tspan></text>
  <text class="st26" transform="translate(235 496.5)"><tspan x="0" y="0">GND pin</tspan></text>
  <text class="st14" transform="translate(730.23 343.64)"><tspan x="0" y="0">A0 pin</tspan></text>
  <circle class="st34" cx="725" cy="218.5" r="8"/>
  <circle class="st29" cx="709" cy="335.64" r="10"/>
  <circle class="st31" cx="725" cy="462.5" r="8"/>
  <path class="st4" d="M221,408.5c0-72,94-190,504-190"/>
  <line class="st34" x1="725" y1="218.5" x2="707" y2="210.5"/>
  <text class="st24" transform="translate(447.49 224.5)"><tspan x="0" y="0">5 V supply</tspan></text>
  <path class="st0" d="M371,408.5c84.97,0,175.81-72,334-72"/>
  <text class="st19" transform="translate(335 378.33)"><tspan x="0" y="0">A0 reads Vout</tspan></text>
  <path class="st3" d="M256.23,411.87c74,95.15,312.81,76.61,468.77,50.63"/>
  <text class="st26" transform="translate(451.65 506.5)"><tspan x="0" y="0">common ground</tspan></text>
  <line class="st2" x1="725" y1="218.5" x2="725" y2="246.5"/>
  <polyline class="st1" points="725 246.5 705 256.5 745 276.5 705 296.5 745 316.5 705 336.5 745 356.5 725 368.5"/>
  <text class="st17" transform="translate(668.79 325.64)"><tspan x="0" y="0">Vout</tspan></text>
  <polyline class="st1" points="725 368.5 701 377.5 749 395.5 701 413.5 749 431.5 701 449.5 725 462.5"/>
  <line class="st5" x1="691" y1="368.5" x2="759" y2="462.5"/>
  <line class="st5" x1="709" y1="360.5" x2="691" y2="368.5"/>
  <line class="st3" x1="725" y1="462.5" x2="725" y2="456.5"/>
  <text class="st28" transform="translate(759.33 251)"><tspan x="0" y="0">Fixed resistor</tspan></text>
  <text class="st16" transform="translate(759.33 278)"><tspan x="0" y="0">100 kOhm precision</tspan></text>
  <text class="st28" transform="translate(761.16 399)"><tspan x="0" y="0">NTC thermistor</tspan></text>
  <text class="st16" transform="translate(761.16 426)"><tspan x="0" y="0">100 kOhm at 25 C</tspan></text>
  <rect class="st39" x="582.44" y="139.5" width="385.24" height="42" rx="9" ry="9"/>
  <text class="st18" transform="translate(591.18 167.5)"><tspan x="0" y="0">5V -&gt; resistor -&gt; A0/Vout -&gt; thermistor -&gt; GND</tspan></text>
  <text class="st33" transform="translate(733.15 213.76)"><tspan x="0" y="0">5V</tspan></text>
  <text class="st33" transform="translate(733 485.56)"><tspan x="0" y="0">0V</tspan></text>
</svg>